<svg width="772" height="126" viewBox="0 0 772 126" fill="none" xmlns="http://www.w3.org/2000/svg">
<path d="M65.1683 120.2L65.5725 121.115L65.5758 121.113L65.1683 120.2ZM79.7844 108.176L78.9547 107.618L78.9535 107.62L79.7844 108.176ZM80.3604 71.888L79.5406 72.4609L79.5479 72.4709L80.3604 71.888ZM67.4724 60.656L66.9828 61.528L66.9886 61.5312L67.4724 60.656ZM48.7524 51.872L49.1216 50.9426L49.1172 50.9409L48.7524 51.872ZM38.8884 47.768L38.4647 48.6738L38.4734 48.6779L38.4822 48.6818L38.8884 47.768ZM31.7604 42.656L31.0023 43.3083L31.01 43.317L31.7604 42.656ZM33.9203 23.144L34.6327 23.8459L34.6378 23.8406L33.9203 23.144ZM61.6404 21.488L61.1852 22.3785L61.1932 22.3824L61.6404 21.488ZM72.1523 28.976L71.4271 29.6644L72.3521 30.639L73.0201 29.4731L72.1523 28.976ZM80.3604 14.648L81.2281 15.1451L81.6 14.4958L81.082 13.9558L80.3604 14.648ZM71.7203 8.024L71.2076 8.88255L71.2128 8.88563L71.7203 8.024ZM60.2004 2.98399L59.904 3.93906L59.907 3.94001L60.2004 2.98399ZM28.1603 5.79199L27.6593 4.92657L28.1603 5.79199ZM15.3444 18.248L14.4861 17.7347L14.4826 17.7406L15.3444 18.248ZM14.5524 48.848L13.7139 49.393L13.717 49.3978L14.5524 48.848ZM24.0563 58.424L23.4969 59.2528L23.5028 59.2569L23.5089 59.2608L24.0563 58.424ZM36.0084 64.832L35.6183 65.7529L35.6276 65.7567L36.0084 64.832ZM51.0563 71.528L50.6171 72.4264L50.6252 72.4303L51.0563 71.528ZM61.1364 78.8L60.3789 79.453L60.3846 79.4594L61.1364 78.8ZM58.8323 102.488L59.4229 103.295L59.4292 103.29L58.8323 102.488ZM29.6003 103.712L29.1572 104.608L29.1653 104.612L29.6003 103.712ZM18.6564 96.512L17.992 97.2594L18.6564 96.512ZM11.4564 89.744L12.1729 89.0464L11.3005 88.1504L10.6183 89.1985L11.4564 89.744ZM1.52039 105.008L0.682251 104.462L0.271362 105.094L0.764648 105.663L1.52039 105.008ZM6.99237 110.408L6.32336 111.151L6.33173 111.159L6.99237 110.408ZM15.8484 116.816L15.3236 117.667L15.3304 117.671L15.3373 117.676L15.8484 116.816ZM28.0884 122.144L27.7901 123.098L27.7929 123.099L28.0884 122.144ZM43.7123 125.304C51.9365 125.304 59.2305 123.917 65.5725 121.115L64.7642 119.285C58.7222 121.955 51.7123 123.304 43.7123 123.304V125.304ZM65.5758 121.113C71.9725 118.259 76.9976 114.134 80.6152 108.732L78.9535 107.62C75.5631 112.682 70.8442 116.573 64.7609 119.287L65.5758 121.113ZM80.6141 108.734C84.2949 103.263 86.1124 96.7004 86.1124 89.096H84.1124C84.1124 96.3716 82.3779 102.529 78.9547 107.618L80.6141 108.734ZM86.1124 89.096C86.1124 81.8931 84.4946 75.9354 81.1729 71.3051L79.5479 72.4709C82.5621 76.6726 84.1124 82.1869 84.1124 89.096H86.1124ZM81.18 71.3151C77.9604 66.7087 73.5419 62.8676 67.9561 59.7808L66.9886 61.5312C72.3469 64.4924 76.5203 68.1393 79.5407 72.4609L81.18 71.3151ZM67.9619 59.784C62.4443 56.6864 56.163 53.7399 49.1216 50.9426L48.3832 52.8013C55.3578 55.5721 61.5564 58.4816 66.9828 61.528L67.9619 59.784ZM49.1172 50.9409C45.5771 49.5536 42.303 48.1913 39.2945 46.8542L38.4822 48.6818C41.5217 50.0327 44.8237 51.4064 48.3875 52.8031L49.1172 50.9409ZM39.3121 46.8622C36.4335 45.5158 34.1779 43.8875 32.5107 41.995L31.01 43.317C32.8948 45.4565 35.3912 47.2362 38.4647 48.6738L39.3121 46.8622ZM32.5184 42.0038C30.9326 40.1609 30.0964 37.6987 30.0964 34.52H28.0964C28.0964 38.0613 29.0361 41.0231 31.0023 43.3082L32.5184 42.0038ZM30.0964 34.52C30.0964 30.4798 31.5886 26.9353 34.6327 23.8458L33.208 22.4421C29.8201 25.8807 28.0964 29.9202 28.0964 34.52H30.0964ZM34.6378 23.8406C37.6165 20.773 41.8873 19.176 47.6003 19.176V17.176C41.5054 17.176 36.6562 18.891 33.2029 22.4474L34.6378 23.8406ZM47.6003 19.176C52.4885 19.176 57.0117 20.2453 61.1852 22.3784L62.0955 20.5976C57.629 18.3147 52.7922 17.176 47.6003 17.176V19.176ZM61.1932 22.3824C65.4329 24.5023 68.8355 26.934 71.4271 29.6644L72.8777 28.2876C70.0932 25.354 66.4878 22.7937 62.0876 20.5936L61.1932 22.3824ZM73.0201 29.4731L81.2281 15.1451L79.4927 14.1509L71.2847 28.4789L73.0201 29.4731ZM81.082 13.9558C78.7494 11.5238 75.7921 9.26183 72.2279 7.16236L71.2128 8.88563C74.6566 10.9142 77.4594 13.0682 79.6387 15.3402L81.082 13.9558ZM72.2331 7.16545C68.7018 5.05648 64.7871 3.34527 60.4937 2.02798L59.907 3.94001C64.0616 5.21472 67.8269 6.86351 71.2076 8.88254L72.2331 7.16545ZM60.4968 2.02893C56.2228 0.702518 51.8027 0.0399952 47.2404 0.0399952V2.04C51.606 2.04 55.8259 2.67347 59.904 3.93906L60.4968 2.02893ZM47.2404 0.0399952C39.8425 0.0399952 33.3047 1.65818 27.6593 4.92657L28.6614 6.65742C33.96 3.58981 40.1422 2.04 47.2404 2.04V0.0399952ZM27.6593 4.92657C22.0489 8.17471 17.6503 12.4446 14.4861 17.7347L16.2026 18.7613C19.1824 13.7794 23.3278 9.74528 28.6614 6.65742L27.6593 4.92657ZM14.4826 17.7406C11.3682 23.0302 9.80835 28.7493 9.80835 34.88H11.8083C11.8083 29.1067 13.2725 23.7378 16.2061 18.7554L14.4826 17.7406ZM9.80835 34.88C9.80835 40.5073 11.0934 45.3615 13.7139 49.393L15.3908 48.303C13.0193 44.6545 11.8083 40.1967 11.8083 34.88H9.80835ZM13.717 49.3978C16.2872 53.3024 19.5497 56.5885 23.4969 59.2528L24.6158 57.5951C20.883 55.0755 17.8095 51.9776 15.3876 48.2982L13.717 49.3978ZM23.5089 59.2608C27.4443 61.8359 31.4808 64.0005 35.6183 65.7528L36.3984 63.9112C32.3759 62.2075 28.4444 60.1001 24.6039 57.5872L23.5089 59.2608ZM35.6276 65.7567C41.3251 68.1027 46.3209 70.326 50.6171 72.4264L51.4955 70.6296C47.1519 68.506 42.1157 66.2653 36.3891 63.9073L35.6276 65.7567ZM50.6252 72.4303C54.8565 74.4519 58.0922 76.8003 60.379 79.4529L61.8938 78.1471C59.3805 75.2317 55.8962 72.7321 51.4875 70.6257L50.6252 72.4303ZM60.3846 79.4594C62.5922 81.9761 63.7364 85.3005 63.7364 89.528H65.7364C65.7364 84.9235 64.4806 81.0959 61.8881 78.1406L60.3846 79.4594ZM63.7364 89.528C63.7364 94.9829 61.8739 98.979 58.2355 101.686L59.4292 103.29C63.6628 100.141 65.7364 95.4971 65.7364 89.528H63.7364ZM58.2418 101.681C54.508 104.413 49.8537 105.808 44.2164 105.808V107.808C50.195 107.808 55.2847 106.323 59.4229 103.295L58.2418 101.681ZM44.2164 105.808C38.8719 105.808 34.1524 104.801 30.0354 102.812L29.1653 104.612C33.5923 106.751 38.6168 107.808 44.2164 107.808V105.808ZM30.0435 102.816C25.8378 100.736 22.2674 98.3838 19.3207 95.7646L17.992 97.2594C21.0933 100.016 24.8189 102.464 29.1572 104.608L30.0435 102.816ZM19.3207 95.7646C16.3055 93.0845 13.9253 90.8462 12.1729 89.0464L10.7399 90.4416C12.5394 92.2898 14.9592 94.5635 17.992 97.2594L19.3207 95.7646ZM10.6183 89.1985L0.682251 104.462L2.35846 105.554L12.2944 90.2895L10.6183 89.1985ZM0.764648 105.663C2.05188 107.148 3.91058 108.98 6.32336 111.151L7.66132 109.665C5.27411 107.516 3.4848 105.748 2.27606 104.353L0.764648 105.663ZM6.33173 111.159C8.78412 113.317 11.7845 115.486 15.3236 117.667L16.3731 115.965C12.9042 113.826 10.0005 111.723 7.65302 109.657L6.33173 111.159ZM15.3373 117.676C18.9664 119.833 23.1198 121.639 27.7901 123.098L28.3867 121.19C23.8409 119.769 19.8344 118.023 16.3594 115.956L15.3373 117.676ZM27.7929 123.099C32.5601 124.574 37.8699 125.304 43.7123 125.304V123.304C38.0349 123.304 32.9286 122.594 28.3839 121.189L27.7929 123.099ZM108.673 122H107.673V123H108.673V122ZM127.537 122V123H128.537V122H127.537ZM127.537 3.19999H128.537V2.19999H127.537V3.19999ZM108.673 3.19999V2.19999H107.673V3.19999H108.673ZM108.673 123H127.537V121H108.673V123ZM128.537 122V3.19999H126.537V122H128.537ZM127.537 2.19999H108.673V4.19999H127.537V2.19999ZM107.673 3.19999V122H109.673V3.19999H107.673ZM172.137 122H171.137V123H172.137V122ZM190.929 122V123H191.929V122H190.929ZM190.929 19.976V18.976H189.929V19.976H190.929ZM223.329 19.976V20.976H224.329V19.976H223.329ZM223.329 3.19999H224.329V2.19999H223.329V3.19999ZM139.809 3.19999V2.19999H138.809V3.19999H139.809ZM139.809 19.976H138.809V20.976H139.809V19.976ZM172.137 19.976H173.137V18.976H172.137V19.976ZM172.137 123H190.929V121H172.137V123ZM191.929 122V19.976H189.929V122H191.929ZM190.929 20.976H223.329V18.976H190.929V20.976ZM224.329 19.976V3.19999H222.329V19.976H224.329ZM223.329 2.19999H139.809V4.19999H223.329V2.19999ZM138.809 3.19999V19.976H140.809V3.19999H138.809ZM139.809 20.976H172.137V18.976H139.809V20.976ZM171.137 19.976V122H173.137V19.976H171.137ZM242.413 122H241.413V123H242.413V122ZM306.277 122V123H307.277V122H306.277ZM306.277 105.44H307.277V104.44H306.277V105.44ZM261.277 105.44H260.277V106.44H261.277V105.44ZM261.277 70.736V69.736H260.277V70.736H261.277ZM304.549 70.736V71.736H305.549V70.736H304.549ZM304.549 54.176H305.549V53.176H304.549V54.176ZM261.277 54.176H260.277V55.176H261.277V54.176ZM261.277 19.76V18.76H260.277V19.76H261.277ZM306.277 19.76V20.76H307.277V19.76H306.277ZM306.277 3.19999H307.277V2.19999H306.277V3.19999ZM242.413 3.19999V2.19999H241.413V3.19999H242.413ZM242.413 123H306.277V121H242.413V123ZM307.277 122V105.44H305.277V122H307.277ZM306.277 104.44H261.277V106.44H306.277V104.44ZM262.277 105.44V70.736H260.277V105.44H262.277ZM261.277 71.736H304.549V69.736H261.277V71.736ZM305.549 70.736V54.176H303.549V70.736H305.549ZM304.549 53.176H261.277V55.176H304.549V53.176ZM262.277 54.176V19.76H260.277V54.176H262.277ZM261.277 20.76H306.277V18.76H261.277V20.76ZM307.277 19.76V3.19999H305.277V19.76H307.277ZM306.277 2.19999H242.413V4.19999H306.277V2.19999ZM241.413 3.19999V122H243.413V3.19999H241.413ZM381.184 122H380.184V123H381.184V122ZM399.976 122V123H400.976V122H399.976ZM399.976 19.976V18.976H398.976V19.976H399.976ZM432.376 19.976V20.976H433.376V19.976H432.376ZM432.376 3.19999H433.376V2.19999H432.376V3.19999ZM348.856 3.19999V2.19999H347.856V3.19999H348.856ZM348.856 19.976H347.856V20.976H348.856V19.976ZM381.184 19.976H382.184V18.976H381.184V19.976ZM381.184 123H399.976V121H381.184V123ZM400.976 122V19.976H398.976V122H400.976ZM399.976 20.976H432.376V18.976H399.976V20.976ZM433.376 19.976V3.19999H431.376V19.976H433.376ZM432.376 2.19999H348.856V4.19999H432.376V2.19999ZM347.856 3.19999V19.976H349.856V3.19999H347.856ZM348.856 20.976H381.184V18.976H348.856V20.976ZM380.184 19.976V122H382.184V19.976H380.184ZM451.461 122H450.461V123H451.461V122ZM515.325 122V123H516.325V122H515.325ZM515.325 105.44H516.325V104.44H515.325V105.44ZM470.325 105.44H469.325V106.44H470.325V105.44ZM470.325 70.736V69.736H469.325V70.736H470.325ZM513.597 70.736V71.736H514.597V70.736H513.597ZM513.597 54.176H514.597V53.176H513.597V54.176ZM470.325 54.176H469.325V55.176H470.325V54.176ZM470.325 19.76V18.76H469.325V19.76H470.325ZM515.325 19.76V20.76H516.325V19.76H515.325ZM515.325 3.19999H516.325V2.19999H515.325V3.19999ZM451.461 3.19999V2.19999H450.461V3.19999H451.461ZM451.461 123H515.325V121H451.461V123ZM516.325 122V105.44H514.325V122H516.325ZM515.325 104.44H470.325V106.44H515.325V104.44ZM471.325 105.44V70.736H469.325V105.44H471.325ZM470.325 71.736H513.597V69.736H470.325V71.736ZM514.597 70.736V54.176H512.597V70.736H514.597ZM513.597 53.176H470.325V55.176H513.597V53.176ZM471.325 54.176V19.76H469.325V54.176H471.325ZM470.325 20.76H515.325V18.76H470.325V20.76ZM516.325 19.76V3.19999H514.325V19.76H516.325ZM515.325 2.19999H451.461V4.19999H515.325V2.19999ZM450.461 3.19999V122H452.461V3.19999H450.461ZM594.149 120.2L594.553 121.115L594.556 121.113L594.149 120.2ZM608.765 108.176L607.935 107.618L607.934 107.62L608.765 108.176ZM609.341 71.888L608.521 72.4609L608.528 72.4709L609.341 71.888ZM596.453 60.656L595.964 61.528L595.969 61.5312L596.453 60.656ZM577.733 51.872L578.102 50.9426L578.098 50.9409L577.733 51.872ZM567.869 47.768L567.445 48.6738L567.454 48.6779L567.463 48.6818L567.869 47.768ZM560.741 42.656L559.983 43.3083L559.991 43.317L560.741 42.656ZM562.901 23.144L563.613 23.8459L563.618 23.8406L562.901 23.144ZM590.621 21.488L590.166 22.3785L590.174 22.3824L590.621 21.488ZM601.133 28.976L600.408 29.6644L601.333 30.639L602.001 29.4731L601.133 28.976ZM609.341 14.648L610.209 15.1451L610.581 14.4958L610.063 13.9558L609.341 14.648ZM600.701 8.024L600.188 8.88255L600.193 8.88563L600.701 8.024ZM589.181 2.98399L588.885 3.93906L588.888 3.94001L589.181 2.98399ZM557.141 5.79199L556.64 4.92657L557.141 5.79199ZM544.325 18.248L543.467 17.7347L543.463 17.7406L544.325 18.248ZM543.533 48.848L542.695 49.393L542.698 49.3978L543.533 48.848ZM553.037 58.424L552.478 59.2528L552.484 59.2569L552.49 59.2608L553.037 58.424ZM564.989 64.832L564.599 65.7529L564.608 65.7567L564.989 64.832ZM580.037 71.528L579.598 72.4264L579.606 72.4303L580.037 71.528ZM590.117 78.8L589.36 79.453L589.365 79.4594L590.117 78.8ZM587.813 102.488L588.404 103.295L588.41 103.29L587.813 102.488ZM558.581 103.712L558.138 104.608L558.146 104.612L558.581 103.712ZM547.637 96.512L546.973 97.2594L547.637 96.512ZM540.437 89.744L541.153 89.0464L540.281 88.1504L539.599 89.1985L540.437 89.744ZM530.501 105.008L529.663 104.462L529.252 105.094L529.745 105.663L530.501 105.008ZM535.973 110.408L535.304 111.151L535.312 111.159L535.973 110.408ZM544.829 116.816L544.304 117.667L544.311 117.671L544.318 117.676L544.829 116.816ZM557.069 122.144L556.771 123.098L556.774 123.099L557.069 122.144ZM572.693 125.304C580.917 125.304 588.211 123.917 594.553 121.115L593.745 119.285C587.703 121.955 580.693 123.304 572.693 123.304V125.304ZM594.556 121.113C600.953 118.259 605.978 114.134 609.596 108.732L607.934 107.62C604.544 112.682 599.825 116.573 593.742 119.287L594.556 121.113ZM609.595 108.734C613.276 103.263 615.093 96.7004 615.093 89.096H613.093C613.093 96.3716 611.359 102.529 607.935 107.618L609.595 108.734ZM615.093 89.096C615.093 81.8931 613.475 75.9354 610.154 71.3051L608.528 72.4709C611.543 76.6726 613.093 82.1869 613.093 89.096H615.093ZM610.161 71.3151C606.941 66.7087 602.522 62.8676 596.937 59.7808L595.969 61.5312C601.328 64.4924 605.501 68.1393 608.521 72.4609L610.161 71.3151ZM596.943 59.784C591.425 56.6864 585.144 53.7399 578.102 50.9426L577.364 52.8013C584.338 55.5721 590.537 58.4816 595.964 61.528L596.943 59.784ZM578.098 50.9409C574.558 49.5536 571.284 48.1913 568.275 46.8542L567.463 48.6818C570.502 50.0327 573.804 51.4064 577.368 52.8031L578.098 50.9409ZM568.293 46.8622C565.414 45.5158 563.159 43.8875 561.491 41.995L559.991 43.317C561.875 45.4565 564.372 47.2362 567.445 48.6738L568.293 46.8622ZM561.499 42.0038C559.913 40.1609 559.077 37.6987 559.077 34.52H557.077C557.077 38.0613 558.017 41.0231 559.983 43.3082L561.499 42.0038ZM559.077 34.52C559.077 30.4798 560.569 26.9353 563.613 23.8458L562.189 22.4421C558.801 25.8807 557.077 29.9202 557.077 34.52H559.077ZM563.618 23.8406C566.597 20.773 570.868 19.176 576.581 19.176V17.176C570.486 17.176 565.637 18.891 562.184 22.4474L563.618 23.8406ZM576.581 19.176C581.469 19.176 585.992 20.2453 590.166 22.3784L591.076 20.5976C586.61 18.3147 581.773 17.176 576.581 17.176V19.176ZM590.174 22.3824C594.414 24.5023 597.816 26.934 600.408 29.6644L601.858 28.2876C599.074 25.354 595.469 22.7937 591.068 20.5936L590.174 22.3824ZM602.001 29.4731L610.209 15.1451L608.473 14.1509L600.265 28.4789L602.001 29.4731ZM610.063 13.9558C607.73 11.5238 604.773 9.26183 601.208 7.16236L600.193 8.88563C603.637 10.9142 606.44 13.0682 608.619 15.3402L610.063 13.9558ZM601.214 7.16545C597.682 5.05648 593.768 3.34527 589.474 2.02798L588.888 3.94001C593.042 5.21472 596.808 6.86351 600.188 8.88254L601.214 7.16545ZM589.477 2.02893C585.203 0.702518 580.783 0.0399952 576.221 0.0399952V2.04C580.587 2.04 584.807 2.67347 588.885 3.93906L589.477 2.02893ZM576.221 0.0399952C568.823 0.0399952 562.285 1.65818 556.64 4.92657L557.642 6.65742C562.941 3.58981 569.123 2.04 576.221 2.04V0.0399952ZM556.64 4.92657C551.03 8.17471 546.631 12.4446 543.467 17.7347L545.183 18.7613C548.163 13.7794 552.308 9.74528 557.642 6.65742L556.64 4.92657ZM543.463 17.7406C540.349 23.0302 538.789 28.7493 538.789 34.88H540.789C540.789 29.1067 542.253 23.7378 545.187 18.7554L543.463 17.7406ZM538.789 34.88C538.789 40.5073 540.074 45.3615 542.695 49.393L544.371 48.303C542 44.6545 540.789 40.1967 540.789 34.88H538.789ZM542.698 49.3978C545.268 53.3024 548.53 56.5885 552.478 59.2528L553.596 57.5951C549.864 55.0755 546.79 51.9776 544.368 48.2982L542.698 49.3978ZM552.49 59.2608C556.425 61.8359 560.462 64.0005 564.599 65.7528L565.379 63.9112C561.357 62.2075 557.425 60.1001 553.585 57.5872L552.49 59.2608ZM564.608 65.7567C570.306 68.1027 575.302 70.326 579.598 72.4264L580.476 70.6296C576.133 68.506 571.096 66.2653 565.37 63.9073L564.608 65.7567ZM579.606 72.4303C583.837 74.4519 587.073 76.8003 589.36 79.4529L590.874 78.1471C588.361 75.2317 584.877 72.7321 580.468 70.6257L579.606 72.4303ZM589.365 79.4594C591.573 81.9761 592.717 85.3005 592.717 89.528H594.717C594.717 84.9235 593.461 81.0959 590.869 78.1406L589.365 79.4594ZM592.717 89.528C592.717 94.9829 590.855 98.979 587.216 101.686L588.41 103.29C592.643 100.141 594.717 95.4971 594.717 89.528H592.717ZM587.223 101.681C583.489 104.413 578.834 105.808 573.197 105.808V107.808C579.176 107.808 584.265 106.323 588.404 103.295L587.223 101.681ZM573.197 105.808C567.853 105.808 563.133 104.801 559.016 102.812L558.146 104.612C562.573 106.751 567.597 107.808 573.197 107.808V105.808ZM559.024 102.816C554.818 100.736 551.248 98.3838 548.301 95.7646L546.973 97.2594C550.074 100.016 553.8 102.464 558.138 104.608L559.024 102.816ZM548.301 95.7646C545.286 93.0845 542.906 90.8462 541.153 89.0464L539.721 90.4416C541.52 92.2898 543.94 94.5635 546.973 97.2594L548.301 95.7646ZM539.599 89.1985L529.663 104.462L531.339 105.554L541.275 90.2895L539.599 89.1985ZM529.745 105.663C531.033 107.148 532.891 108.98 535.304 111.151L536.642 109.665C534.255 107.516 532.465 105.748 531.257 104.353L529.745 105.663ZM535.312 111.159C537.765 113.317 540.765 115.486 544.304 117.667L545.354 115.965C541.885 113.826 538.981 111.723 536.634 109.657L535.312 111.159ZM544.318 117.676C547.947 119.833 552.1 121.639 556.771 123.098L557.367 121.19C552.822 119.769 548.815 118.023 545.34 115.956L544.318 117.676ZM556.774 123.099C561.541 124.574 566.851 125.304 572.693 125.304V123.304C567.016 123.304 561.909 122.594 557.365 121.189L556.774 123.099ZM650.419 122H649.419V123H650.419V122ZM669.211 122V123H670.211V122H669.211ZM669.211 19.976V18.976H668.211V19.976H669.211ZM701.611 19.976V20.976H702.611V19.976H701.611ZM701.611 3.19999H702.611V2.19999H701.611V3.19999ZM618.091 3.19999V2.19999H617.091V3.19999H618.091ZM618.091 19.976H617.091V20.976H618.091V19.976ZM650.419 19.976H651.419V18.976H650.419V19.976ZM650.419 123H669.211V121H650.419V123ZM670.211 122V19.976H668.211V122H670.211ZM669.211 20.976H701.611V18.976H669.211V20.976ZM702.611 19.976V3.19999H700.611V19.976H702.611ZM701.611 2.19999H618.091V4.19999H701.611V2.19999ZM617.091 3.19999V19.976H619.091V3.19999H617.091ZM618.091 20.976H650.419V18.976H618.091V20.976ZM649.419 19.976V122H651.419V19.976H649.419ZM720.696 122H719.696V123H720.696V122ZM784.56 122V123H785.56V122H784.56ZM784.56 105.44H785.56V104.44H784.56V105.44ZM739.56 105.44H738.56V106.44H739.56V105.44ZM739.56 70.736V69.736H738.56V70.736H739.56ZM782.832 70.736V71.736H783.832V70.736H782.832ZM782.832 54.176H783.832V53.176H782.832V54.176ZM739.56 54.176H738.56V55.176H739.56V54.176ZM739.56 19.76V18.76H738.56V19.76H739.56ZM784.56 19.76V20.76H785.56V19.76H784.56ZM784.56 3.19999H785.56V2.19999H784.56V3.19999ZM720.696 3.19999V2.19999H719.696V3.19999H720.696ZM720.696 123H784.56V121H720.696V123ZM785.56 122V105.44H783.56V122H785.56ZM784.56 104.44H739.56V106.44H784.56V104.44ZM740.56 105.44V70.736H738.56V105.44H740.56ZM739.56 71.736H782.832V69.736H739.56V71.736ZM783.832 70.736V54.176H781.832V70.736H783.832ZM782.832 53.176H739.56V55.176H782.832V53.176ZM740.56 54.176V19.76H738.56V54.176H740.56ZM739.56 20.76H784.56V18.76H739.56V20.76ZM785.56 19.76V3.19999H783.56V19.76H785.56ZM784.56 2.19999H720.696V4.19999H784.56V2.19999ZM719.696 3.19999V122H721.696V3.19999H719.696Z" fill="#FF7C76"/>
</svg>
